<svg width="37" height="39" viewBox="0 0 37 39" fill="none" xmlns="http://www.w3.org/2000/svg">
<path d="M34.7333 18.4167L19.4167 33.7333C17.5403 35.6097 14.9953 36.6639 12.3417 36.6639C9.68803 36.6639 7.14307 35.6097 5.26667 33.7333C3.39026 31.8569 2.33611 29.312 2.33611 26.6583C2.33611 24.0047 3.39026 21.4597 5.26667 19.5833L20.5833 4.26666C21.8343 3.01573 23.5309 2.31296 25.3 2.31296C27.0691 2.31296 28.7657 3.01573 30.0167 4.26666C31.2676 5.5176 31.9704 7.21424 31.9704 8.98333C31.9704 10.7524 31.2676 12.4491 30.0167 13.7L14.6833 29.0167C14.0579 29.6421 13.2095 29.9935 12.325 29.9935C11.4405 29.9935 10.5921 29.6421 9.96667 29.0167C9.3412 28.3912 8.98981 27.5429 8.98981 26.6583C8.98981 25.7738 9.3412 24.9255 9.96667 24.3L24.1167 10.1667" stroke="#383838" stroke-width="3" stroke-linecap="round" stroke-linejoin="round"/>
</svg>
