<svg width="80" height="1524" viewBox="0 0 80 1524" fill="none" xmlns="http://www.w3.org/2000/svg">
<path fill-rule="evenodd" clip-rule="evenodd" d="M45 102.65C45 89.5344 55.7128 79.0606 65.7461 70.6139C74.4619 63.2764 80 52.2849 80 40C80 17.9086 62.0914 0 40 0C17.9086 0 0 17.9086 0 40C0 52.1298 5.39911 62.9985 13.9252 70.3342C23.6781 78.7253 34 89.0687 34 101.935V453.065C34 465.931 23.6781 476.275 13.9252 484.666C5.3991 492.001 0 502.87 0 515C0 527.13 5.3991 537.999 13.9252 545.334C23.6781 553.725 34 564.069 34 576.935V928.066C34 940.931 23.6781 951.275 13.9252 959.666C5.3991 967.001 0 977.87 0 990C0 1002.13 5.3991 1013 13.9252 1020.33C23.6781 1028.73 34 1039.07 34 1051.93V1422.07C34 1434.93 23.6781 1445.27 13.9252 1453.67C5.3991 1461 0 1471.87 0 1484C0 1506.09 17.9086 1524 40 1524C62.0914 1524 80 1506.09 80 1484C80 1471.72 74.4619 1460.72 65.7461 1453.39C55.7129 1444.94 45 1434.47 45 1421.35V1052.65C45 1039.53 55.7129 1029.06 65.7461 1020.61C74.4619 1013.28 80 1002.28 80 990C80 977.715 74.4619 966.724 65.7461 959.386C55.7128 950.939 45 940.466 45 927.35V577.65C45 564.534 55.7128 554.061 65.7461 545.614C74.4619 538.276 80 527.285 80 515C80 502.715 74.4619 491.724 65.7461 484.386C55.7129 475.939 45 465.466 45 452.35V102.65Z" fill="white"/>
<path d="M30.5599 22V28.5H37.5599V57H45.6599V22H30.5599Z" fill="#613689"/>
<path d="M38.304 525.4L46.354 517.8C51.254 513.25 52.204 510.15 52.204 506.75C52.204 500.4 47.004 496.4 39.204 496.4C32.904 496.4 28.004 498.95 25.304 502.9L31.204 506.7C32.904 504.35 35.454 503.2 38.454 503.2C42.154 503.2 44.054 504.8 44.054 507.55C44.054 509.25 43.504 511.05 40.404 514L26.904 526.75V532H53.354V525.4H38.304Z" fill="#613689"/>
<path d="M43.505 986.25L51.405 977.25V972H26.905V978.5H41.805L34.605 986.65V992H38.305C42.905 992 44.855 993.65 44.855 996.3C44.855 999.15 42.355 1000.8 38.305 1000.8C34.655 1000.8 30.955 999.65 28.305 997.65L25.155 1003.85C28.555 1006.25 33.605 1007.6 38.505 1007.6C48.455 1007.6 53.005 1002.2 53.005 996.3C53.005 991.15 49.805 987.25 43.505 986.25Z" fill="#613689"/>
<path d="M55.2637 1488.05H49.5637V1481.5H41.9137V1488.05H32.5137L47.8137 1467H39.3137L22.8137 1489.2V1494.65H41.6637V1502H49.5637V1494.65H55.2637V1488.05Z" fill="#613689"/>
</svg>
