<svg width="381" height="650" viewBox="0 0 381 650" fill="none" xmlns="http://www.w3.org/2000/svg">
<path d="M347.685 90.5404C345.886 91.8767 343.364 91.6163 341.876 89.9408C340.391 88.2687 340.426 85.74 341.958 84.1103L356.022 69.1451C358.498 66.5101 362.702 66.5693 365.103 69.2728C367.5 71.9711 367.069 76.1434 364.172 78.2953L347.685 90.5404Z" fill="url(#paint0_linear_0_1)" fill-opacity="0.55"/>
<path d="M367.612 127.788C366.549 127.722 365.713 126.854 365.686 125.789C365.659 124.727 366.448 123.819 367.503 123.697L377.199 122.574C378.906 122.377 380.415 123.687 380.458 125.405C380.501 127.12 379.065 128.503 377.353 128.396L367.612 127.788Z" fill="url(#paint1_linear_0_1)" fill-opacity="0.55"/>
<path d="M192.024 34.3311C192.4 37.3998 195.047 39.6799 198.138 39.5969C201.221 39.5141 203.739 37.1056 203.959 34.0287L205.726 9.24601C206.079 4.29291 202.083 0.115482 197.119 0.248787C192.166 0.381818 188.402 4.75085 189.005 9.66959L192.024 34.3311Z" fill="url(#paint2_linear_0_1)" fill-opacity="0.55"/>
<path d="M103.333 647C103.333 648.473 104.527 649.667 106 649.667C107.473 649.667 108.667 648.473 108.667 647C108.667 645.527 107.473 644.333 106 644.333C104.527 644.333 103.333 645.527 103.333 647ZM263.628 560.666C244.247 582.2 185.522 629.572 105.896 646.511L106.104 647.489C185.973 630.499 244.876 582.996 264.372 561.334L263.628 560.666Z" fill="white"/>
<path d="M22.0646 132.212C23.7228 132.077 25 130.692 25 129.029C25 127.368 23.7275 125.985 22.0729 125.847L4.98908 124.417C2.30367 124.193 -3.36066e-07 126.312 -2.18272e-07 129.007C-1.00687e-07 131.697 2.29592 133.814 4.97717 133.597L22.0646 132.212Z" fill="url(#paint3_linear_0_1)" fill-opacity="0.55"/>
<path d="M282.711 55.2496C282.455 56.3887 283.107 57.5359 284.216 57.8989C285.324 58.261 286.525 57.7242 286.994 56.6577L290.77 48.0677C291.525 46.3509 290.634 44.3575 288.851 43.7745C287.073 43.1927 285.179 44.2687 284.769 46.0947L282.711 55.2496Z" fill="url(#paint4_linear_0_1)" fill-opacity="0.55"/>
<path d="M38.4174 90.874C39.4507 91.4177 40.728 91.0867 41.3672 90.1096C42.005 89.1347 41.7992 87.835 40.8915 87.1049L33.5799 81.2238C32.1185 80.0484 29.9621 80.3899 28.9354 81.9592C27.9108 83.5253 28.4571 85.6334 30.1133 86.5049L38.4174 90.874Z" fill="url(#paint5_linear_0_1)" fill-opacity="0.55"/>
<defs>
<linearGradient id="paint0_linear_0_1" x1="341.85" y1="89.9121" x2="365.097" y2="69.2657" gradientUnits="userSpaceOnUse">
<stop stop-color="white"/>
<stop offset="1" stop-color="#462863"/>
</linearGradient>
<linearGradient id="paint1_linear_0_1" x1="365.686" y1="125.771" x2="380.458" y2="125.401" gradientUnits="userSpaceOnUse">
<stop stop-color="white"/>
<stop offset="1" stop-color="#462863"/>
</linearGradient>
<linearGradient id="paint2_linear_0_1" x1="198.19" y1="39.5955" x2="197.133" y2="0.248407" gradientUnits="userSpaceOnUse">
<stop stop-color="white"/>
<stop offset="1" stop-color="#462863"/>
</linearGradient>
<linearGradient id="paint3_linear_0_1" x1="25" y1="129" x2="-2.18557e-07" y2="129" gradientUnits="userSpaceOnUse">
<stop stop-color="white"/>
<stop offset="1" stop-color="#462863"/>
</linearGradient>
<linearGradient id="paint4_linear_0_1" x1="284.235" y1="57.905" x2="288.856" y2="43.7762" gradientUnits="userSpaceOnUse">
<stop stop-color="white"/>
<stop offset="1" stop-color="#462863"/>
</linearGradient>
<linearGradient id="paint5_linear_0_1" x1="41.378" y1="90.0931" x2="28.9383" y2="81.9547" gradientUnits="userSpaceOnUse">
<stop stop-color="white"/>
<stop offset="1" stop-color="#462863"/>
</linearGradient>
</defs>
</svg>
