<svg width="26" height="26" viewBox="0 0 26 26" fill="none" xmlns="http://www.w3.org/2000/svg">
<path d="M10.796 18.4914L20.0603 9.22701L19.4253 8.59195L10.796 17.2586L6.46264 12.9253L5.86494 13.5603L10.796 18.4914ZM13 26C11.2069 26 9.52586 25.6576 7.9569 24.9727C6.38793 24.2878 5.01197 23.3539 3.82902 22.171C2.64607 20.988 1.71216 19.6121 1.0273 18.0431C0.342433 16.4741 0 14.7931 0 13C0 11.2069 0.342433 9.51964 1.0273 7.93822C1.71216 6.3568 2.64607 4.98084 3.82902 3.81034C5.01197 2.63985 6.38793 1.71216 7.9569 1.0273C9.52586 0.342433 11.2069 0 13 0C14.7931 0 16.4804 0.342433 18.0618 1.0273C19.6432 1.71216 21.0192 2.63985 22.1897 3.81034C23.3602 4.98084 24.2878 6.3568 24.9727 7.93822C25.6576 9.51964 26 11.2069 26 13C26 14.7931 25.6576 16.4741 24.9727 18.0431C24.2878 19.6121 23.3602 20.988 22.1897 22.171C21.0192 23.3539 19.6432 24.2878 18.0618 24.9727C16.4804 25.6576 14.7931 26 13 26ZM13 25.1782C16.387 25.1782 19.2634 23.9952 21.6293 21.6293C23.9952 19.2634 25.1782 16.387 25.1782 13C25.1782 9.61303 23.9952 6.73659 21.6293 4.37069C19.2634 2.00479 16.387 0.821839 13 0.821839C9.61303 0.821839 6.73659 2.00479 4.37069 4.37069C2.00479 6.73659 0.821839 9.61303 0.821839 13C0.821839 16.387 2.00479 19.2634 4.37069 21.6293C6.73659 23.9952 9.61303 25.1782 13 25.1782Z" fill="white"/>
</svg>
