<svg width="26" height="26" viewBox="0 0 26 26" fill="none" xmlns="http://www.w3.org/2000/svg">
<path d="M13.1494 20.3966C13.3736 20.3966 13.5666 20.3094 13.7284 20.1351C13.8903 19.9607 13.9713 19.7615 13.9713 19.5374C13.9713 19.3381 13.8903 19.1513 13.7284 18.977C13.5666 18.8027 13.3736 18.7155 13.1494 18.7155C12.9253 18.7155 12.7261 18.8027 12.5517 18.977C12.3774 19.1513 12.2902 19.3381 12.2902 19.5374C12.2902 19.7615 12.3774 19.9607 12.5517 20.1351C12.7261 20.3094 12.9253 20.3966 13.1494 20.3966ZM12.5517 15.7644H13.4483C13.4732 15.2165 13.5915 14.7371 13.8032 14.3261C14.0148 13.9152 14.4071 13.4483 14.9799 12.9253C15.6772 12.2529 16.1753 11.6552 16.4741 11.1322C16.773 10.6092 16.9224 10.0364 16.9224 9.41379C16.9224 8.31801 16.5613 7.42146 15.8391 6.72414C15.1169 6.02682 14.2328 5.67816 13.1868 5.67816C12.2653 5.67816 11.4435 5.9272 10.7213 6.42529C9.99904 6.92337 9.45115 7.50862 9.07759 8.18103L9.97414 8.5546C10.273 7.93199 10.6652 7.44636 11.1509 7.0977C11.6365 6.74904 12.2778 6.57471 13.0747 6.57471C14.0958 6.57471 14.8554 6.85488 15.3534 7.41523C15.8515 7.97557 16.1006 8.62931 16.1006 9.37644C16.1006 9.89942 15.9636 10.3726 15.6897 10.796C15.4157 11.2193 15.0297 11.6552 14.5316 12.1034C13.8343 12.751 13.33 13.386 13.0187 14.0086C12.7074 14.6312 12.5517 15.2165 12.5517 15.7644ZM13 26C11.2069 26 9.52586 25.6576 7.9569 24.9727C6.38793 24.2878 5.01197 23.3539 3.82902 22.171C2.64607 20.988 1.71216 19.6121 1.0273 18.0431C0.342433 16.4741 0 14.7931 0 13C0 11.2069 0.342433 9.51964 1.0273 7.93822C1.71216 6.3568 2.64607 4.98084 3.82902 3.81034C5.01197 2.63985 6.38793 1.71216 7.9569 1.0273C9.52586 0.342433 11.2069 0 13 0C14.7931 0 16.4804 0.342433 18.0618 1.0273C19.6432 1.71216 21.0192 2.63985 22.1897 3.81034C23.3602 4.98084 24.2878 6.3568 24.9727 7.93822C25.6576 9.51964 26 11.2069 26 13C26 14.7931 25.6576 16.4741 24.9727 18.0431C24.2878 19.6121 23.3602 20.988 22.1897 22.171C21.0192 23.3539 19.6432 24.2878 18.0618 24.9727C16.4804 25.6576 14.7931 26 13 26ZM13 25.1782C16.387 25.1782 19.2634 23.9952 21.6293 21.6293C23.9952 19.2634 25.1782 16.387 25.1782 13C25.1782 9.61303 23.9952 6.73659 21.6293 4.37069C19.2634 2.00479 16.387 0.821839 13 0.821839C9.61303 0.821839 6.73659 2.00479 4.37069 4.37069C2.00479 6.73659 0.821839 9.61303 0.821839 13C0.821839 16.387 2.00479 19.2634 4.37069 21.6293C6.73659 23.9952 9.61303 25.1782 13 25.1782Z" fill="white"/>
</svg>
