<svg width="26" height="26" viewBox="0 0 26 26" fill="none" xmlns="http://www.w3.org/2000/svg">
<path d="M3.29529 0.537068C1.46757 2.28072 0.231772 3.92679 0 5.8098C0.0483627 9.67537 3.54284 14.1588 7.65917 18.2711C9.70194 20.3118 11.9039 22.3413 14.0566 23.8138C16.2093 25.2863 18.3128 26.2363 20.2093 25.9487C22.0629 25.7377 24.1224 23.68 25.461 22.6309C26.1818 22.0339 26.1818 20.388 25.448 19.7501L21.9726 16.2781C21.0724 15.5596 19.8872 15.5236 18.9476 16.0081C18.0995 16.5962 17.2526 17.2517 16.5277 17.7695C15.7622 18.1328 14.9847 17.5643 14.4038 17.1523C13.4133 16.4442 12.3308 15.3643 11.456 14.4904C10.5745 13.6098 9.47424 12.5892 8.7658 11.6355C8.22029 10.9118 7.88691 10.1308 8.19955 9.38493C8.77674 8.58665 9.39077 7.797 9.95012 6.99298C10.375 6.02167 10.405 4.74754 9.70543 4.02237L6.22995 0.550031C5.25407 -0.218618 4.23612 -0.143168 3.2951 0.537364L3.29529 0.537068ZM5.65097 1.1416L9.12645 4.60097C9.57582 5.24321 9.45837 5.92403 9.22951 6.59422L7.54313 8.89604C6.87498 10.0746 7.44065 11.2158 8.10938 12.124C8.88923 13.1736 9.99901 14.2177 10.864 15.0819C11.7398 15.9568 12.8493 17.0628 13.9276 17.834C14.8329 18.4679 16.1471 19.111 17.0427 18.4127C17.8194 17.8591 18.5886 17.2908 19.3597 16.7281C20.0938 16.4059 20.758 16.4595 21.3806 16.8567L24.8691 20.3417C25.2948 20.9247 25.1932 21.4697 24.882 22.0264C23.2987 23.2683 21.6512 24.9144 20.0809 25.1257C18.5526 25.3516 16.5919 24.5493 14.5204 23.1324C12.4433 21.7118 10.265 19.7167 8.23899 17.6927C4.18405 13.6415 0.882413 9.17791 0.824489 5.82327C1.08703 4.40292 2.25234 2.83195 3.86244 1.1295C4.51994 0.678683 5.04098 0.754685 5.65154 1.14216L5.65097 1.1416Z" fill="white"/>
</svg>
