<svg  viewBox="0 0 194 44" fill="none" xmlns="http://www.w3.org/2000/svg">
<path d="M43.4994 22.0557C43.5838 33.5514 34.4082 44 21.7733 44C9.05406 44 -0.248076 33.3377 0.00504322 21.5002C0.258163 10.1114 9.53921 -0.251748 22.2585 0.00466023C34.3238 0.239701 43.626 10.3251 43.4994 22.0557ZM18.6937 37.0343C24.7686 37.0343 29.7466 32.0343 29.7466 25.9019C29.7466 19.684 24.8107 14.6413 18.6937 14.6413C12.6188 14.6413 7.64081 19.684 7.64081 25.8378C7.61972 32.0129 12.5977 37.0343 18.6937 37.0343ZM35.948 23.8292C35.948 19.7694 35.948 15.6883 35.948 11.6285C35.948 11.2011 35.9269 10.7311 35.8004 10.3251C35.2519 8.53023 34.2816 6.94904 31.8559 7.07724C31.7083 7.07724 31.5606 7.07724 31.4129 7.07724C30.3372 7.01314 30.3372 7.01315 30.3372 8.10288C30.3372 16.0943 30.3161 24.0643 30.3583 32.0557C30.3583 32.8676 30.5059 33.7437 30.8012 34.5129C31.3919 36.0514 32.4676 37.077 34.2605 36.9702C34.5558 36.9488 34.8722 36.9915 35.1886 37.0129C35.8425 37.0556 35.948 36.9702 35.948 36.3078C35.948 32.1411 35.948 27.9745 35.948 23.8292ZM7.61972 20.4318C7.66191 20.4532 7.70409 20.4532 7.74628 20.4746C7.80956 20.3891 7.89393 20.325 7.93612 20.2395C9.07516 18.0601 10.6993 16.372 12.8087 15.1327C13.0196 15.0045 13.2094 14.6413 13.2094 14.3849C13.2516 13.3379 13.2516 12.2909 13.2094 11.2652C13.1673 9.89773 12.5977 8.808 11.4798 8.01741C10.5517 7.35502 9.51812 7.11998 8.42127 7.03451C7.74628 6.99178 7.64081 7.09861 7.64081 7.78237C7.64081 11.8208 7.64081 15.8806 7.64081 19.919C7.61972 20.0686 7.61972 20.2395 7.61972 20.4318Z" fill="white"/>
<path d="M95.7475 22.013C96.0217 22.1626 96.1693 22.2481 96.3381 22.3335C97.8568 23.1669 98.7849 24.4489 98.9326 26.201C98.9958 27.0557 98.9747 27.9745 98.7849 28.8078C98.2787 31.1155 96.4857 32.6326 93.9124 33.0172C93.0053 33.1454 92.0772 33.2309 91.1491 33.2309C88.1961 33.2522 85.243 33.2522 82.29 33.2309C82.0368 33.2309 81.7837 33.2309 81.5306 33.1881C80.497 33.0386 80.0752 32.5685 80.0752 31.5001C80.0541 29.5343 80.0752 27.5899 80.0752 25.6241C80.0752 21.4788 80.0752 17.3549 80.0752 13.2097C80.0752 12.9319 80.0752 12.6541 80.0963 12.3764C80.1595 11.6499 80.6025 11.1798 81.3197 11.0516C81.5095 11.0302 81.7204 11.0088 81.9103 11.0088C85.2852 11.0088 88.639 10.9875 92.014 11.0088C93.4061 11.0088 94.7561 11.2439 96.0006 11.8849C97.7513 12.7823 98.6373 14.278 98.8271 16.2011C98.8904 16.8635 98.8693 17.5686 98.7849 18.231C98.5529 20.09 97.4982 21.2652 95.7475 22.013ZM83.8298 23.5942C83.8087 23.8079 83.7876 23.9788 83.7876 24.1498C83.7876 25.6455 83.7876 27.1625 83.7876 28.6583C83.7876 29.3634 83.8509 29.4061 84.5258 29.4275C86.4031 29.4275 88.2804 29.4275 90.1788 29.4275C91.0226 29.4275 91.8874 29.4275 92.7311 29.342C94.2288 29.1711 95.0936 28.1882 95.178 26.607C95.2623 25.1327 94.4608 24.0429 93.0475 23.7224C92.6468 23.6369 92.2249 23.5942 91.803 23.5728C89.314 23.5515 86.8461 23.5728 84.3571 23.5728C84.1884 23.5728 84.0196 23.5942 83.8298 23.5942ZM83.8298 20.3891C83.9985 20.4105 84.1251 20.4318 84.2516 20.4318C86.6985 20.4318 89.1453 20.4318 91.571 20.4318C91.9929 20.4318 92.3936 20.3891 92.8155 20.325C94.0178 20.1327 94.7772 19.4489 94.967 18.4019C95.3678 16.3293 94.1444 14.8336 91.9929 14.8122C89.4828 14.7909 86.9727 14.8122 84.4415 14.7909C83.9352 14.7909 83.7665 14.9832 83.7665 15.4746C83.7876 16.8421 83.7665 18.2096 83.7665 19.5985C83.7876 19.8335 83.8087 20.1113 83.8298 20.3891Z" fill="white"/>
<path d="M132.154 11.0302C132.935 11.0302 133.673 11.0302 134.411 11.0302C134.918 11.0302 135.635 10.8806 135.867 11.137C136.141 11.4362 135.993 12.1413 135.993 12.6541C135.993 17.9319 135.993 23.2096 135.993 28.4873C135.993 29.0429 135.951 29.5984 135.846 30.1326C135.403 32.2052 133.926 33.4659 131.817 33.5727C131.142 33.6155 130.467 33.6155 129.813 33.53C127.809 33.2736 126.628 31.9702 125.848 30.1967C123.654 25.2395 121.418 20.3036 119.203 15.3464C118.929 14.7481 118.549 14.3421 117.853 14.3208C116.925 14.2994 116.44 14.7481 116.44 15.7097C116.44 21.3079 116.44 26.9275 116.44 32.5257C116.44 32.7394 116.44 32.9531 116.44 33.2309C115.238 33.2309 114.078 33.2309 112.917 33.2095C112.812 33.2095 112.685 33.0386 112.643 32.9104C112.601 32.7608 112.622 32.5898 112.622 32.4189C112.622 26.8207 112.622 21.2438 112.622 15.6455C112.622 15.0045 112.685 14.3635 112.833 13.7439C113.318 11.8849 114.774 10.7524 116.777 10.6242C117.452 10.5815 118.127 10.5815 118.781 10.667C120.827 10.902 121.924 12.2909 122.705 14.043C124.919 18.9575 127.113 23.872 129.328 28.7865C129.623 29.4488 130.066 29.8548 130.826 29.8548C131.606 29.8548 132.112 29.3634 132.133 28.5514C132.154 27.6113 132.133 26.6925 132.133 25.7523C132.133 21.0729 132.133 16.4148 132.133 11.7353C132.154 11.543 132.154 11.3293 132.154 11.0302Z" fill="white"/>
<path d="M194 33.2522C192.587 33.2522 191.3 33.2736 189.992 33.2309C189.845 33.2309 189.655 33.0172 189.549 32.8463C188.031 30.2822 186.533 27.7181 185.056 25.1327C184.803 24.7053 184.55 24.5771 184.065 24.5771C182.504 24.5985 180.943 24.5771 179.382 24.5985C178.539 24.5985 178.391 24.748 178.391 25.5814C178.391 27.9318 178.391 30.2822 178.391 32.6112C178.391 32.8035 178.391 32.9958 178.391 33.2309C177.125 33.2309 175.923 33.2309 174.679 33.2309C174.657 33.124 174.615 32.9958 174.615 32.8676C174.615 29.8762 174.594 26.8848 174.636 23.9147C174.657 22.0344 175.67 21.0088 177.505 20.9874C180.395 20.9447 183.306 20.9874 186.195 20.966C186.617 20.966 187.081 20.9447 187.482 20.8378C189.191 20.4105 189.739 19.0002 189.676 17.6541C189.592 15.9661 188.579 14.9191 187.018 14.8977C183.622 14.855 180.247 14.8763 176.851 14.855C176.218 14.855 175.586 14.855 174.953 14.855C174.657 14.855 174.531 14.7481 174.531 14.449C174.531 13.4447 174.552 12.4405 174.531 11.4148C174.531 10.9447 174.826 11.0088 175.122 11.0088C179.024 11.0088 182.905 11.0088 186.807 11.0088C187.271 11.0088 187.756 11.0516 188.199 11.1584C191.616 11.8208 193.494 14.0857 193.494 17.6114C193.494 19.7481 192.903 21.6711 191.216 23.0814C190.562 23.6369 189.739 23.9788 188.938 24.4703C190.604 27.3121 192.27 30.2181 194 33.2522Z" fill="white"/>
<path d="M56.0288 19.3848C56.0288 16.7994 56.0499 14.2139 56.0077 11.6285C56.0077 11.137 56.1554 10.9875 56.6194 11.0088C57.4632 11.0302 58.328 11.0516 59.1717 11.0088C59.699 10.9875 59.8467 11.1584 59.8467 11.6926C59.8256 16.2866 59.8256 20.9019 59.8467 25.4959C59.8467 25.9446 59.8467 26.372 59.9311 26.8207C60.2053 28.295 61.1756 29.2565 62.6732 29.3206C64.5294 29.4061 66.4067 29.4061 68.2629 29.3206C69.8238 29.2565 70.8785 28.1454 71.0261 26.5856C71.0683 26.0514 71.1105 25.5173 71.1105 25.0044C71.1105 20.5814 71.1105 16.1797 71.1105 11.7567C71.1105 11.0516 71.1105 11.0516 71.8277 11.0516C72.6714 11.0516 73.4941 11.0516 74.3378 11.0516C74.6964 11.0516 74.8018 11.1798 74.8018 11.543C74.7807 16.7567 74.844 21.9489 74.7597 27.1625C74.6964 30.6668 72.3972 33.0386 68.959 33.1668C66.5333 33.2736 64.1075 33.2522 61.6818 33.1668C58.6022 33.0386 56.535 31.03 56.1343 27.9531C56.071 27.419 56.0288 26.8634 56.0288 26.3078C56.0288 23.9788 56.0288 21.6711 56.0288 19.3848Z" fill="white"/>
<path d="M137.871 33.2522C138.335 32.0343 138.778 30.9018 139.221 29.7694C141.309 24.4062 143.439 19.0643 145.485 13.7011C146.266 11.6285 147.7 10.667 149.831 10.6456C150.421 10.6456 151.033 10.6883 151.624 10.7524C153.142 10.9661 154.155 11.8635 154.703 13.2951C157.15 19.8122 159.597 26.3292 162.044 32.8249C162.086 32.9317 162.107 33.0599 162.17 33.2309C160.82 33.2309 159.534 33.2522 158.226 33.2095C158.099 33.2095 157.909 32.9745 157.846 32.8035C156.285 28.6583 154.724 24.4916 153.184 20.3464C152.594 18.7652 152.003 17.2054 151.434 15.6242C151.138 14.8336 150.822 14.5558 150.231 14.5558C149.535 14.5558 149.219 15.0045 148.987 15.6028C146.793 21.2652 144.557 26.9275 142.385 32.6112C142.195 33.124 141.963 33.295 141.414 33.2736C140.212 33.2095 139.094 33.2522 137.871 33.2522Z" fill="white"/>
<path d="M165.545 11.0516C166.79 11.0516 168.013 11.0516 169.258 11.0516C169.258 18.4447 169.258 25.8164 169.258 33.2095C168.013 33.2095 166.79 33.2095 165.545 33.2095C165.545 25.8378 165.545 18.4874 165.545 11.0516Z" fill="white"/>
<path d="M107.285 33.2522C106.104 33.2522 104.944 33.2522 103.805 33.2309C103.7 33.2309 103.573 33.0599 103.531 32.9317C103.489 32.8035 103.51 32.6326 103.51 32.5044C103.51 25.6241 103.51 18.7438 103.51 11.8422C103.51 11.0302 103.51 11.0302 104.311 11.0302C105.155 11.0302 106.02 11.0516 106.864 11.0302C107.222 11.0302 107.328 11.1584 107.328 11.5217C107.328 18.637 107.328 25.7737 107.328 32.889C107.307 32.9745 107.285 33.0813 107.285 33.2522Z" fill="white"/>
<path d="M12.9352 25.8805C12.9352 22.654 15.4875 20.0686 18.6937 20.0472C21.8577 20.0259 24.4522 22.654 24.4311 25.8805C24.41 29.107 21.8788 31.6924 18.7148 31.7138C15.5508 31.7352 12.9352 29.0856 12.9352 25.8805Z" fill="white"/>
</svg>
